<?xml version="1.0" standalone="no"?>
<!DOCTYPE svg PUBLIC "-//W3C//DTD SVG 20010904//EN"
 "http://www.w3.org/TR/2001/REC-SVG-20010904/DTD/svg10.dtd">
<svg version="1.0" xmlns="http://www.w3.org/2000/svg"
 width="512.000000pt" height="512.000000pt" viewBox="0 0 512.000000 512.000000"
 preserveAspectRatio="xMidYMid meet">
<metadata>
Created by potrace 1.16, written by Peter Selinger 2001-2019
</metadata>
<g transform="translate(0.000000,512.000000) scale(0.100000,-0.100000)"
fill="#000000" stroke="none">
<path d="M1141 5066 c-41 -23 -50 -53 -51 -167 l0 -106 158 -52 c352 -116 732
-300 1020 -493 40 -27 77 -48 83 -46 15 5 -101 192 -176 285 -199 248 -513
450 -871 562 -109 34 -128 36 -163 17z"/>
<path d="M3790 5041 c-451 -151 -782 -406 -985 -759 -26 -45 -46 -84 -44 -87
3 -2 32 14 64 36 301 202 681 388 1038 506 l167 55 0 104 c0 115 -10 148 -51
170 -40 20 -61 18 -189 -25z"/>
<path d="M472 4723 c-26 -22 -202 -243 -202 -253 0 -4 430 -196 956 -428 953
-419 956 -420 990 -406 22 9 71 14 144 14 l110 0 0 107 0 108 -73 70 c-210
202 -637 439 -1092 605 -245 90 -672 200 -774 200 -22 0 -48 -7 -59 -17z"/>
<path d="M4515 4733 c-473 -100 -805 -213 -1177 -399 -266 -133 -496 -283
-620 -405 l-68 -66 0 -107 0 -106 110 0 c73 0 122 -5 145 -14 l34 -15 943 416
c519 228 949 417 956 420 6 3 12 9 12 13 0 11 -175 229 -202 253 -19 16 -81
21 -133 10z"/>
<path d="M0 2657 l0 -1732 1041 -458 c572 -252 1047 -461 1055 -464 12 -4 14
219 14 1729 l0 1735 -1049 462 c-577 253 -1052 461 -1055 461 -3 0 -6 -780 -6
-1733z m1095 708 c578 -271 792 -377 804 -395 14 -21 16 -78 16 -508 l0 -484
-28 -24 c-16 -13 -41 -24 -57 -24 -36 0 -1598 733 -1622 762 -17 19 -18 58
-18 508 l0 487 25 27 c20 21 33 27 59 24 19 -2 387 -169 821 -373z m-9 -1366
c434 -204 797 -380 807 -391 41 -48 3 -138 -59 -138 -35 0 -1595 735 -1623
764 -12 13 -21 36 -21 53 0 39 42 83 80 83 14 0 382 -167 816 -371z m-8 -454
c386 -182 615 -295 630 -311 12 -14 22 -36 22 -50 0 -33 -51 -84 -83 -84 -19
0 -633 283 -1178 544 -76 36 -99 61 -99 107 0 27 53 79 80 79 11 0 294 -128
628 -285z"/>
<path d="M360 3158 l1 -363 681 -320 c374 -176 685 -321 689 -323 5 -2 9 160
9 360 l0 363 -681 320 c-375 176 -685 322 -690 323 -5 2 -9 -151 -9 -360z"/>
<path d="M4058 3928 l-1048 -461 0 -1735 c0 -1647 1 -1734 18 -1727 9 3 484
212 1055 463 l1037 456 0 1733 c0 953 -3 1733 -7 1733 -5 -1 -479 -208 -1055
-462z m847 -214 l25 -27 0 -487 c0 -450 -1 -489 -17 -508 -27 -32 -1587 -762
-1627 -762 -22 0 -40 8 -57 26 l-24 26 0 482 c0 423 2 485 16 506 21 32 1578
768 1627 769 23 1 40 -7 57 -25z m-1 -1370 c31 -32 34 -71 6 -106 -24 -31
-1584 -768 -1624 -768 -59 0 -98 85 -62 135 19 26 1583 763 1622 764 21 1 40
-7 58 -25z m-183 -543 c37 -37 37 -72 2 -110 -35 -37 -1211 -591 -1255 -591
-66 0 -101 83 -55 134 26 29 1218 595 1255 596 13 0 37 -13 53 -29z"/>
<path d="M4063 3196 l-682 -321 -1 -363 c0 -209 4 -362 9 -360 5 2 315 147
690 323 l681 320 0 363 c0 199 -3 362 -7 361 -5 -1 -315 -146 -690 -323z"/>
<path d="M2280 3290 l0 -190 280 0 280 0 0 190 0 190 -280 0 -280 0 0 -190z"/>
<path d="M2280 2835 l0 -95 280 0 280 0 0 95 0 95 -280 0 -280 0 0 -95z"/>
<path d="M2280 1735 l0 -825 280 0 280 0 0 825 0 825 -280 0 -280 0 0 -825z"/>
<path d="M2280 640 l0 -100 280 0 280 0 0 100 0 100 -280 0 -280 0 0 -100z"/>
<path d="M2280 185 l0 -185 280 0 280 0 0 185 0 185 -280 0 -280 0 0 -185z"/>
</g>
</svg>
